<svg width="41" height="40" viewBox="0 0 41 40" fill="none" xmlns="http://www.w3.org/2000/svg">
<rect width="41" height="40" rx="20" fill="white"/>
<path d="M30.3755 12.5323C29.5401 12.9233 28.1184 13.6566 27.404 13.7967C27.3763 13.8038 27.3538 13.8129 27.3271 13.8201C26.4938 13.0056 25.3519 12.5008 24.0881 12.5008C21.5409 12.5008 19.4755 14.5472 19.4755 17.0709C19.4755 17.2039 19.4642 17.4487 19.4755 17.5787C16.177 17.5787 13.7682 15.8735 11.9652 13.6819C11.7243 13.3874 11.4681 13.5408 11.4148 13.75C11.2948 14.2232 11.2538 15.0144 11.2538 15.579C11.2538 17.0018 12.3762 18.3993 14.1239 19.2656C13.802 19.3478 13.4474 19.4067 13.0784 19.4067C12.6437 19.4067 12.1435 19.294 11.7059 19.0665C11.5439 18.9822 11.1944 19.0056 11.2979 19.4159C11.713 21.0601 13.6073 22.2148 15.2996 22.5509C14.9152 22.7754 14.0952 22.7297 13.718 22.7297C13.5786 22.7297 13.0937 22.6972 12.7801 22.6586C12.4941 22.6241 12.0544 22.6972 12.4223 23.2497C13.2126 24.4348 15.0003 25.1792 16.5388 25.2077C15.1222 26.3086 12.8057 26.7107 10.5865 26.7107C10.1376 26.7006 10.1601 27.2073 10.522 27.3952C12.1589 28.2463 14.8404 28.75 16.7561 28.75C24.372 28.75 28.7006 22.9988 28.7006 17.5777C28.7006 17.4903 28.6986 17.3075 28.6955 17.1237C28.6955 17.1054 28.7006 17.0882 28.7006 17.0699C28.7006 17.0425 28.6924 17.0161 28.6924 16.9886C28.6894 16.8505 28.6863 16.7216 28.6832 16.6545C29.2869 16.2229 30.2115 15.4734 30.6789 14.8996C30.8378 14.7046 30.7097 14.468 30.4934 14.5421C29.9368 14.7341 28.9743 15.1058 28.3716 15.1769C29.5781 14.3857 30.1746 13.6972 30.6871 12.9324C30.8624 12.6714 30.643 12.4064 30.3755 12.5323Z" fill="#6B7280"/>
</svg>
